<?xml version="1.0" encoding="utf-8"?>
<!-- Generator: Adobe Illustrator 16.0.4, SVG Export Plug-In . SVG Version: 6.00 Build 0)  -->
<!DOCTYPE svg PUBLIC "-//W3C//DTD SVG 1.1//EN" "http://www.w3.org/Graphics/SVG/1.1/DTD/svg11.dtd">
<svg version="1.1" id="Layer_1" xmlns="http://www.w3.org/2000/svg" xmlns:xlink="http://www.w3.org/1999/xlink" x="0px" y="0px"
	 width="720px" height="720px" viewBox="0 0 720 720" enable-background="new 0 0 720 720" xml:space="preserve">
<g>
	<path fill="#F68C23" d="M93.288,588.647l565.89-111.613c19.071-3.762,31.039-22.812,26.187-41.639
		c-35.479-137.589-115.837-253.126-222.06-333.843c-15.562-11.833-37.834-8.318-48.718,7.916L93.288,588.647z"/>
	<path fill="#FDC847" d="M93.288,588.647l523.283-103.21C589,345.646,508.686,224.953,390.405,145.523L93.288,588.647z"/>
	<g>
		<path fill="#E93B25" d="M350.328,274.987c27.749-24.255,69.91-21.43,94.167,6.324c24.254,27.748,21.421,69.912-6.327,94.166
			c-27.746,24.254-69.91,21.424-94.166-6.33C319.753,341.392,322.58,299.241,350.328,274.987"/>
		<path fill="#E93B25" d="M472.709,445.797c-36.157,7.131-59.688,42.225-52.562,78.382l130.948-25.828
			C543.962,462.188,508.863,438.665,472.709,445.797"/>
		<path fill="#E93B25" d="M224.403,393.098l-47.237,70.457c1.309,13.368,6.597,26.473,16.111,37.356
			c24.254,27.746,66.417,30.573,94.164,6.317c27.75-24.248,30.58-66.417,6.326-94.164
			C276.009,392.751,248.675,385.854,224.403,393.098"/>
	</g>
	<path fill="#FDC847" d="M178.484,587.786c-1.672-8.476,3.843-16.7,12.318-18.372l-1.893-9.598l-61.381,12.107l1.893,9.597
		c8.477-1.672,16.7,3.843,18.372,12.318l3.026,15.345c1.672,8.478,9.896,13.991,18.372,12.319
		c8.475-1.671,13.991-9.895,12.319-18.372L178.484,587.786z"/>
	<path fill="#FDC847" d="M392.633,545.548c-1.672-8.475,3.843-16.699,12.319-18.371l-1.894-9.598l-61.381,12.106l1.893,9.598
		c8.477-1.672,16.701,3.843,18.373,12.318l3.026,15.345c1.672,8.478,9.896,13.991,18.372,12.319
		c8.477-1.672,13.99-9.896,12.318-18.373L392.633,545.548L392.633,545.548z"/>
	<path fill="#FDC847" d="M611.28,550.25c1.671,8.47-3.842,16.699-12.317,18.37c-8.479,1.673-16.703-3.847-18.373-12.316
		l-9.08-46.037c-1.672-8.476-9.896-13.99-18.371-12.318l-1.893-9.598l61.38-12.106l1.893,9.598
		c-8.478,1.672-13.991,9.896-12.32,18.372l9.08,46.036H611.28z"/>
	<path fill="#FDC847" d="M589.67,602.338c-1.672-8.476,3.842-16.699,12.32-18.372c8.476-1.671,16.699,3.843,18.371,12.319
		c1.67,8.47-3.842,16.7-12.317,18.372C599.565,616.329,591.341,610.808,589.67,602.338z"/>
	<path fill="#FDC847" d="M239.864,575.68c-1.672-8.476,3.843-16.7,12.32-18.372l-1.893-9.598l-61.381,12.106l1.893,9.598
		c8.476-1.672,16.7,3.843,18.372,12.318c1.672,8.478,9.896,13.99,18.372,12.318C236.022,592.378,241.536,584.155,239.864,575.68z"/>
</g>
</svg>
